<svg xmlns="http://www.w3.org/2000/svg" viewBox="0 0 216.7 216.7"><defs><style>.cls-1{fill:#ffca46;}</style></defs><title>Risorsa 2</title><g id="Livello_2" data-name="Livello 2"><g id="Livello_1-2" data-name="Livello 1"><path class="cls-1" d="M214,100.39c-.52,0-1,.43-1.41,1.17a9.9,9.9,0,0,1-10.17,5.19c-6.73-1-12.71-2.1-18-3.24a9.57,9.57,0,0,1-7.31-7.73,68.06,68.06,0,0,0-3.07-11.33c2.66-1.74,5.53-3.54,8.67-5.45a8.42,8.42,0,0,1,9.68.76c.56.46,1.08.64,1.48.47,1.17-.48,1-3.67-.48-7.13s-3.53-5.86-4.7-5.37c-.4.16-.64.66-.72,1.38a8.41,8.41,0,0,1-6.3,7.38c-3.57.87-6.88,1.62-10,2.28a69,69,0,0,0-6.09-10.56,9.54,9.54,0,0,1-.07-10.69c2.91-4.44,6.39-9.32,10.4-14.69a9.82,9.82,0,0,1,10.82-3.43c.86.27,1.53.24,1.91-.13,1.05-1.05-.62-4.43-3.73-7.54S178.48,27,177.43,28c-.38.38-.4,1.06-.13,1.92a9.81,9.81,0,0,1-3.43,10.81q-8.06,6-14.68,10.4a9.53,9.53,0,0,1-10.7-.08,69.34,69.34,0,0,0-10.72-6.17c.67-3.11,1.46-6.41,2.36-10a8.34,8.34,0,0,1,7.38-6.21c.76-.07,1.29-.31,1.46-.73.48-1.16-1.92-3.27-5.38-4.7s-6.64-1.64-7.13-.48c-.17.42,0,1,.52,1.55a8.35,8.35,0,0,1,.83,9.61c-1.88,3.15-3.66,6-5.37,8.71a69.56,69.56,0,0,0-11.53-3.15,9.54,9.54,0,0,1-7.73-7.32C112,26.94,111,21,109.94,14.27a9.94,9.94,0,0,1,5.19-10.18c.75-.41,1.18-.89,1.18-1.4,0-1.49-3.56-2.69-8-2.69s-8,1.2-8,2.69c0,.51.43,1,1.17,1.4a9.92,9.92,0,0,1,5.19,10.18c-1,6.7-2.09,12.66-3.23,17.9a9.53,9.53,0,0,1-7.74,7.31,70.53,70.53,0,0,0-11.37,3.07C82.69,39.91,80.89,37.06,79,34a8.42,8.42,0,0,1,.76-9.68c.46-.56.64-1.08.47-1.49-.48-1.16-3.67-1-7.13.48S67.24,26.8,67.73,28c.16.41.66.65,1.38.72A8.43,8.43,0,0,1,76.49,35c.87,3.54,1.61,6.83,2.26,9.92A69.22,69.22,0,0,0,68.14,51a9.52,9.52,0,0,1-10.69.07c-4.42-2.9-9.27-6.36-14.62-10.36A9.81,9.81,0,0,1,39.4,29.92,1.92,1.92,0,0,0,39.27,28c-1.05-1.05-4.43.62-7.54,3.73S27,38.22,28,39.27a1.92,1.92,0,0,0,1.92.13,9.81,9.81,0,0,1,10.81,3.43c4,5.34,7.45,10.19,10.35,14.61A9.53,9.53,0,0,1,51,68.14a69.19,69.19,0,0,0-6.2,10.77c-3.09-.67-6.37-1.45-9.91-2.35a8.34,8.34,0,0,1-6.21-7.38c-.07-.76-.31-1.28-.73-1.45-1.16-.49-3.27,1.92-4.7,5.37s-1.64,6.65-.48,7.13c.42.18,1,0,1.55-.51a8.34,8.34,0,0,1,9.61-.83c3.13,1.86,6,3.63,8.65,5.33a69.75,69.75,0,0,0-3.15,11.57,9.56,9.56,0,0,1-7.33,7.74c-5.23,1.13-11.17,2.19-17.84,3.22a9.92,9.92,0,0,1-10.18-5.19c-.41-.74-.89-1.17-1.4-1.17-1.49,0-2.69,3.56-2.69,8s1.2,8,2.69,8c.51,0,1-.43,1.4-1.18a9.94,9.94,0,0,1,10.18-5.19c6.67,1,12.61,2.09,17.84,3.22a9.58,9.58,0,0,1,7.33,7.75,68.79,68.79,0,0,0,3.09,11.39c-2.64,1.72-5.48,3.51-8.58,5.4a8.44,8.44,0,0,1-9.68-.77,1.58,1.58,0,0,0-1.49-.47c-1.16.49-1,3.68.48,7.13S26.8,149.45,28,149c.41-.17.65-.66.72-1.38A8.45,8.45,0,0,1,35,140.2c3.53-.86,6.81-1.6,9.89-2.25A69.33,69.33,0,0,0,51,148.56a9.53,9.53,0,0,1,.07,10.7q-4.35,6.62-10.35,14.61a9.81,9.81,0,0,1-10.81,3.43c-.86-.27-1.54-.25-1.92.13-1.05,1,.62,4.42,3.73,7.53s6.49,4.78,7.54,3.73c.37-.38.4-1.05.13-1.91A9.82,9.82,0,0,1,42.83,176c5.35-4,10.2-7.45,14.62-10.35a9.52,9.52,0,0,1,10.69.07,70,70,0,0,0,10.78,6.18c-.68,3.1-1.46,6.39-2.36,9.93A8.32,8.32,0,0,1,69.18,188c-.76.07-1.28.31-1.45.73-.49,1.17,1.92,3.27,5.37,4.7s6.65,1.65,7.13.48c.18-.42,0-1-.51-1.54a8.35,8.35,0,0,1-.83-9.61c1.87-3.15,3.64-6,5.35-8.68a69.36,69.36,0,0,0,11.54,3.13,9.55,9.55,0,0,1,7.74,7.32c1.14,5.24,2.19,11.2,3.23,17.9a9.9,9.9,0,0,1-5.19,10.17c-.74.41-1.17.89-1.17,1.41,0,1.48,3.56,2.69,8,2.69s8-1.21,8-2.69c0-.52-.43-1-1.18-1.41a9.92,9.92,0,0,1-5.19-10.17c1-6.71,2.1-12.67,3.24-17.92a9.54,9.54,0,0,1,7.73-7.31,69.32,69.32,0,0,0,11.35-3.09c1.74,2.65,3.54,5.51,5.44,8.64a8.44,8.44,0,0,1-.77,9.68,1.57,1.57,0,0,0-.47,1.48c.49,1.17,3.68,1,7.13-.48s5.86-3.53,5.38-4.7c-.17-.4-.66-.64-1.38-.72a8.43,8.43,0,0,1-7.39-6.3c-.86-3.56-1.61-6.86-2.27-10a69,69,0,0,0,10.56-6.09,9.53,9.53,0,0,1,10.7-.08q6.65,4.37,14.68,10.39a9.82,9.82,0,0,1,3.43,10.82c-.27.86-.25,1.53.13,1.91,1,1.05,4.42-.62,7.53-3.73s4.78-6.48,3.73-7.53c-.38-.38-1.05-.4-1.91-.13A9.82,9.82,0,0,1,176,173.87c-4-5.38-7.49-10.26-10.4-14.69a9.54,9.54,0,0,1,.07-10.69,69.39,69.39,0,0,0,6.16-10.73c3.12.68,6.43,1.46,10,2.37a8.32,8.32,0,0,1,6.21,7.38c.07.76.31,1.29.73,1.46,1.17.48,3.27-1.92,4.7-5.38s1.65-6.64.48-7.13c-.42-.17-1,0-1.54.52a8.35,8.35,0,0,1-9.61.83c-3.17-1.89-6.06-3.67-8.74-5.39a70.15,70.15,0,0,0,3.13-11.5,9.54,9.54,0,0,1,7.31-7.73c5.26-1.14,11.24-2.2,18-3.25a9.92,9.92,0,0,1,10.17,5.19c.41.75.89,1.18,1.41,1.18,1.48,0,2.69-3.56,2.69-8S215.49,100.39,214,100.39Z"/></g></g></svg>