<svg xmlns="http://www.w3.org/2000/svg" viewBox="0 0 218.65 218.65"><defs><style>.cls-1{fill:#0097a7;}</style></defs><title>Risorsa 1</title><g id="Livello_2" data-name="Livello 2"><g id="Livello_1-2" data-name="Livello 1"><path class="cls-1" d="M215.93,101.29c-.52,0-1,.43-1.41,1.19a10,10,0,0,1-10.27,5.23c-6.79-1-12.83-2.12-18.13-3.27a9.62,9.62,0,0,1-7.37-7.8,70.27,70.27,0,0,0-3.1-11.43c2.68-1.75,5.58-3.58,8.74-5.5a8.51,8.51,0,0,1,9.77.77c.57.46,1.09.64,1.5.47,1.17-.48,1-3.7-.49-7.19s-3.56-5.91-4.74-5.42c-.41.16-.65.66-.73,1.39a8.48,8.48,0,0,1-6.35,7.45c-3.61.88-6.95,1.64-10.09,2.3a69.88,69.88,0,0,0-6.14-10.66A9.61,9.61,0,0,1,167.05,58c2.94-4.48,6.45-9.4,10.49-14.83a9.92,9.92,0,0,1,10.92-3.46c.87.27,1.55.25,1.93-.13,1.06-1.06-.63-4.46-3.76-7.6s-6.54-4.82-7.6-3.76c-.38.38-.41,1.06-.14,1.93a9.9,9.9,0,0,1-3.46,10.91c-5.42,4-10.34,7.55-14.81,10.49a9.61,9.61,0,0,1-10.79-.08A70.65,70.65,0,0,0,139,45.28c.68-3.13,1.47-6.47,2.38-10.06A8.42,8.42,0,0,1,148.84,29c.77-.07,1.3-.31,1.47-.73.49-1.18-1.94-3.3-5.43-4.75s-6.7-1.66-7.19-.48c-.17.42,0,1,.52,1.56a8.4,8.4,0,0,1,.84,9.69c-1.9,3.19-3.69,6.1-5.42,8.8A69.55,69.55,0,0,0,122,39.85a9.61,9.61,0,0,1-7.8-7.38c-1.15-5.29-2.22-11.31-3.27-18.07a10,10,0,0,1,5.24-10.27c.75-.41,1.19-.9,1.19-1.42,0-1.5-3.6-2.71-8-2.71s-8,1.21-8,2.71c0,.52.43,1,1.19,1.42a10,10,0,0,1,5.23,10.27c-1,6.76-2.11,12.77-3.26,18.06a9.63,9.63,0,0,1-7.81,7.38,69.73,69.73,0,0,0-11.47,3.1c-1.74-2.67-3.55-5.55-5.46-8.69a8.49,8.49,0,0,1,.77-9.76c.46-.57.64-1.09.47-1.5-.48-1.18-3.7-1-7.19.48S67.85,27,68.34,28.22c.16.4.66.64,1.39.72a8.51,8.51,0,0,1,7.45,6.36c.87,3.58,1.63,6.89,2.28,10a70.55,70.55,0,0,0-10.71,6.17A9.61,9.61,0,0,1,58,51.55c-4.46-2.93-9.36-6.42-14.76-10.45a9.9,9.9,0,0,1-3.46-10.91c.27-.87.25-1.55-.13-1.93-1.06-1.06-4.46.62-7.6,3.76s-4.82,6.54-3.76,7.6c.38.38,1.06.4,1.93.13A9.9,9.9,0,0,1,41.1,43.21c4,5.39,7.51,10.29,10.44,14.75a9.59,9.59,0,0,1-.08,10.79,71.26,71.26,0,0,0-6.25,10.87c-3.11-.68-6.42-1.46-10-2.37A8.41,8.41,0,0,1,29,69.81c-.07-.77-.31-1.3-.73-1.47-1.18-.49-3.3,1.94-4.75,5.42S21.81,80.47,23,81c.42.18,1,0,1.56-.52a8.4,8.4,0,0,1,9.69-.83C37.4,81.48,40.3,83.26,43,85a70,70,0,0,0-3.19,11.67,9.65,9.65,0,0,1-7.39,7.82c-5.27,1.14-11.27,2.2-18,3.24a10,10,0,0,1-10.27-5.23c-.41-.76-.9-1.19-1.42-1.19-1.5,0-2.71,3.6-2.71,8s1.21,8,2.71,8c.52,0,1-.44,1.42-1.19a10,10,0,0,1,10.27-5.24c6.73,1,12.73,2.11,18,3.25A9.64,9.64,0,0,1,39.79,122a69.74,69.74,0,0,0,3.12,11.49c-2.66,1.74-5.53,3.54-8.66,5.45a8.5,8.5,0,0,1-9.76-.78c-.57-.45-1.09-.64-1.5-.47-1.18.49-1,3.71.48,7.19s3.57,5.92,4.75,5.43c.4-.17.64-.67.72-1.39a8.51,8.51,0,0,1,6.36-7.45c3.57-.87,6.87-1.63,10-2.28a70.55,70.55,0,0,0,6.17,10.71,9.59,9.59,0,0,1,.08,10.79c-2.93,4.46-6.41,9.35-10.44,14.74a9.88,9.88,0,0,1-10.91,3.46c-.87-.27-1.55-.24-1.93.14-1.06,1.06.62,4.46,3.76,7.6s6.54,4.82,7.6,3.76c.38-.38.4-1.06.13-1.93a9.9,9.9,0,0,1,3.46-10.91c5.4-4,10.3-7.52,14.76-10.45a9.59,9.59,0,0,1,10.78.07,71.3,71.3,0,0,0,10.88,6.24c-.68,3.12-1.47,6.44-2.38,10a8.42,8.42,0,0,1-7.44,6.27c-.77.07-1.3.31-1.47.73-.49,1.18,1.94,3.3,5.42,4.74s6.71,1.66,7.19.49c.18-.42,0-1-.52-1.56a8.42,8.42,0,0,1-.83-9.7c1.89-3.17,3.68-6.07,5.4-8.76a69.62,69.62,0,0,0,11.64,3.17,9.63,9.63,0,0,1,7.81,7.38c1.15,5.29,2.22,11.3,3.26,18.06a10,10,0,0,1-5.23,10.27c-.76.41-1.19.89-1.19,1.41,0,1.5,3.6,2.72,8,2.72s8-1.22,8-2.72c0-.52-.44-1-1.19-1.41a10,10,0,0,1-5.24-10.27c1-6.77,2.12-12.78,3.27-18.08a9.63,9.63,0,0,1,7.8-7.38,69.53,69.53,0,0,0,11.45-3.11c1.75,2.67,3.57,5.56,5.49,8.71a8.51,8.51,0,0,1-.78,9.77c-.45.57-.64,1.09-.47,1.5.49,1.17,3.71,1,7.19-.49s5.92-3.56,5.43-4.74c-.17-.41-.67-.65-1.39-.73a8.48,8.48,0,0,1-7.45-6.35c-.88-3.6-1.64-6.93-2.29-10.06a71.18,71.18,0,0,0,10.65-6.15,9.61,9.61,0,0,1,10.79-.08c4.47,2.94,9.39,6.44,14.81,10.48a9.9,9.9,0,0,1,3.46,10.92c-.27.87-.24,1.55.14,1.93,1.06,1.06,4.46-.63,7.6-3.76s4.82-6.54,3.76-7.6c-.38-.38-1.06-.41-1.93-.14a9.9,9.9,0,0,1-10.92-3.46c-4-5.42-7.55-10.34-10.49-14.82a9.61,9.61,0,0,1,.07-10.78A69.88,69.88,0,0,0,173.34,139c3.14.69,6.48,1.48,10.09,2.39a8.43,8.43,0,0,1,6.27,7.45c.07.77.31,1.3.73,1.47,1.18.49,3.3-1.94,4.74-5.43s1.66-6.7.49-7.19c-.42-.17-1,0-1.56.52a8.42,8.42,0,0,1-9.7.84c-3.19-1.9-6.11-3.71-8.82-5.44a70.4,70.4,0,0,0,3.17-11.6,9.62,9.62,0,0,1,7.37-7.8c5.3-1.15,11.34-2.23,18.13-3.28a10,10,0,0,1,10.27,5.24c.41.75.89,1.19,1.41,1.19,1.5,0,2.72-3.6,2.72-8S217.43,101.29,215.93,101.29Z"/></g></g></svg>